<?xml version="1.0" encoding="UTF-8"?>
<svg version="1.1" xmlns="http://www.w3.org/2000/svg" width="1520" height="218">
<path d="M0 0 C501.6 0 1003.2 0 1520 0 C1520 71.94 1520 143.88 1520 218 C1018.4 218 516.8 218 0 218 C0 146.06 0 74.12 0 0 Z " fill="#FEFEFE" transform="translate(0,0)"/>
<path d="M0 0 C5.0390486 4.20455647 10.43798337 9.67121706 11.625 16.3125 C12.285 16.3125 12.945 16.3125 13.625 16.3125 C13.87121094 15.58933594 14.11742187 14.86617187 14.37109375 14.12109375 C18.40208651 5.09217226 27.36210021 -2.05996158 36.34375 -5.828125 C40.45065915 -6.90374406 44.21167957 -6.98947486 48.4375 -6.9375 C49.6433374 -6.92517334 49.6433374 -6.92517334 50.87353516 -6.91259766 C62.64437897 -6.69023559 73.76322118 -3.6900269 82.5625 4.6875 C94.04086848 17.50315413 96.42956028 33.86409864 95.79980469 50.54638672 C93.89271687 80.72418694 82.79691819 109.87085331 63.625 133.3125 C63.03460938 134.09625 62.44421875 134.88 61.8359375 135.6875 C60.19893456 137.76440241 58.64545734 139.60685811 56.625 141.3125 C51.26140595 141.88309511 46.90524683 138.25652764 42.625 135.3125 C43.22488347 131.93773656 44.07003752 128.89904863 45.33203125 125.71484375 C49.76678636 114.2393325 53.17114669 103.13379522 55.171875 90.99511719 C55.65819885 88.11595423 56.2024585 85.25093108 56.75 82.3828125 C60.39560676 62.56274939 64.47920691 35.93306445 54.1640625 17.4140625 C51.0669305 13.18498378 47.46947513 10.79686805 42.28515625 9.9140625 C37.60866034 9.71175153 34.31032443 10.24139631 30.625 13.3125 C18.53151193 25.40598807 19.32773791 43.8124534 19.2109375 59.76953125 C19.1921799 61.41005883 19.17260327 63.05057723 19.1522522 64.69108582 C19.10140912 68.96357758 19.06153087 73.23610046 19.02410889 77.50872803 C18.97664524 82.65943506 18.91525682 87.80999353 18.85626221 92.96057892 C18.76863469 100.74449104 18.6984533 108.5283832 18.625 116.3125 C6.745 116.3125 -5.135 116.3125 -17.375 116.3125 C-17.41238281 110.38796875 -17.44976562 104.4634375 -17.48828125 98.359375 C-17.51858929 94.58590949 -17.54975568 90.81248953 -17.58398438 87.0390625 C-17.63812549 81.06154799 -17.689242 75.08412358 -17.72143555 69.10644531 C-17.74761697 64.28223645 -17.78812223 59.45833351 -17.83818626 54.63431549 C-17.85475528 52.80215537 -17.86633115 50.96994246 -17.87261391 49.1377182 C-17.4712869 30.47974821 -17.4712869 30.47974821 -25.375 14.3125 C-30.54327181 10.65212041 -35.11724418 9.49181071 -41.375 10.3125 C-47.04303277 13.34423846 -50.01459086 19.45923303 -52.09765625 25.359375 C-54.94795252 35.91602784 -54.5799111 46.97573797 -54.69140625 57.81640625 C-54.71201053 59.50748665 -54.73300783 61.1985623 -54.75437927 62.88963318 C-54.80924159 67.31344732 -54.85880698 71.73730513 -54.90722656 76.16119385 C-54.96660018 81.48363203 -55.03262846 86.80599142 -55.09752655 92.12836456 C-55.19508426 100.1896944 -55.28424866 108.25107773 -55.375 116.3125 C-67.255 116.3125 -79.135 116.3125 -91.375 116.3125 C-91.375 76.3825 -91.375 36.4525 -91.375 -4.6875 C-86.755 -4.6875 -82.135 -4.6875 -77.375 -4.6875 C-73.04166667 3.97916667 -68.70833333 12.64583333 -64.375 21.3125 C-64.04628906 20.56226562 -63.71757812 19.81203125 -63.37890625 19.0390625 C-58.43779471 8.40696883 -52.59458146 0.13881109 -41.734375 -4.84765625 C-28.7375919 -9.4739946 -11.3705753 -7.80504117 0 0 Z " fill="#323232" transform="translate(240.375,70.6875)"/>
<path d="M0 0 C1.4540625 0.52787109 1.4540625 0.52787109 2.9375 1.06640625 C19.8004594 7.58359592 31.70024544 17.86993401 40 34 C45.63152824 47.85095529 47.94955382 64.6878306 42.21679688 78.94824219 C38.72415737 86.82707334 34.74322575 94.51967576 29 101 C28.53851562 101.56460938 28.07703125 102.12921875 27.6015625 102.7109375 C17.95483641 113.53289926 2.19678166 121.0644622 -12.13232422 122.26171875 C-24.71431108 122.9072247 -37.37196777 123.39643485 -49 118 C-50.13953125 117.525625 -51.2790625 117.05125 -52.453125 116.5625 C-67.95806356 109.5819216 -79.23240299 97.6608128 -85.93359375 81.98046875 C-91.97116953 65.10621848 -91.49696362 48.19932365 -84 31.875 C-76.01009573 16.88762168 -62.33743095 5.42124783 -46.171875 0.0625 C-31.69353076 -4.05156503 -14.27176892 -5.55261009 0 0 Z " fill="#313131" transform="translate(1444,67)"/>
<path d="M0 0 C0.94609131 -0.01023193 1.89218262 -0.02046387 2.86694336 -0.03100586 C18.07182342 0.15824454 32.39866481 6.10067507 44.25 15.4375 C45.425625 16.34822266 45.425625 16.34822266 46.625 17.27734375 C56.58953379 25.50818332 63.59541352 37.75319952 66.25 50.4375 C66.47321828 54.18456583 66.43514551 57.93443586 66.4375 61.6875 C66.44974609 62.69941406 66.46199219 63.71132812 66.47460938 64.75390625 C66.50638872 81.088488 60.02785063 94.88422087 49.0390625 106.84375 C32.8849432 122.51485577 13.48795136 126.05033509 -8.21875 125.78125 C-16.13910614 125.50938423 -22.54919908 123.8484057 -29.75 120.4375 C-30.73742187 119.99148437 -31.72484375 119.54546875 -32.7421875 119.0859375 C-39.7376033 115.61729642 -45.24793731 110.93014135 -50.75 105.4375 C-51.3996875 104.79941406 -52.049375 104.16132813 -52.71875 103.50390625 C-64.4922345 91.08494563 -68.31444595 74.49719807 -68.02734375 57.8984375 C-67.34710246 42.13443774 -59.61212591 29.33701705 -48.75 18.4375 C-48.13511719 17.79941406 -47.52023437 17.16132812 -46.88671875 16.50390625 C-34.34743754 4.44793781 -16.88090854 0.13978082 0 0 Z " fill="#313131" transform="translate(996.75,63.5625)"/>
<path d="M0 0 C1.05960938 0.350625 2.11921875 0.70125 3.2109375 1.0625 C14.13324557 5.02424398 22.65240696 12.64807159 28 23 C31.42278373 31.32090527 31.54388321 42.87453178 28.5625 51.4375 C23.47175368 61.9226512 14.56739527 69.05817509 3.875 73.21484375 C-5.37103023 76.3988321 -13.60342493 77.213778 -23.33496094 77.24023438 C-25.46590648 77.24984622 -27.59584669 77.2808606 -29.7265625 77.3125 C-38.54051473 77.37866619 -46.459695 76.44271882 -55 74 C-51.50123462 85.75027842 -48.37168989 96.18366464 -37.27734375 102.84765625 C-29.47827399 106.7940123 -20.25315296 107.45631963 -11.84375 105.125 C-0.84988522 100.90513271 5.79012201 94.41975597 11 84 C21.55808656 87.07517084 21.55808656 87.07517084 26 89 C25.0011956 96.49103303 19.95128389 102.32782978 14.48046875 107.28125 C-3.18534592 120.73106497 -23.59831643 123.58578611 -45.28613281 120.6953125 C-49.08161778 119.93427408 -52.50376821 118.63533422 -56 117 C-56.92039062 116.59910156 -57.84078125 116.19820313 -58.7890625 115.78515625 C-73.97358841 108.40675986 -84.53031878 95.24965503 -90.2578125 79.51171875 C-95.53116598 61.6655804 -93.87630903 43.2542638 -85.38330078 26.76586914 C-77.54402753 12.4868194 -64.43997988 2.1577005 -48.87866211 -2.66137695 C-33.37170656 -6.59516026 -14.91928105 -5.62712337 0 0 Z " fill="#323232" transform="translate(695,68)"/>
<path d="M0 0 C0.95519531 0.73283203 0.95519531 0.73283203 1.9296875 1.48046875 C2.56648437 1.91746094 3.20328125 2.35445312 3.859375 2.8046875 C9.69286813 7.17354824 13.67271297 13.83579458 15.5703125 20.84765625 C17.23326934 33.03062266 16.65362393 43.92253637 9.015625 54.0078125 C-0.29262307 64.17918902 -14.72155018 69.98067487 -28.40673828 70.64160156 C-31.64072201 70.67923146 -34.87421813 70.71157991 -38.10839844 70.72070312 C-40.16904057 70.73034581 -42.22865632 70.76139164 -44.2890625 70.79296875 C-52.62283987 70.85764747 -60.09843165 69.97768444 -68.0703125 67.48046875 C-66.32905558 77.92801026 -62.54101349 87.47733426 -54.01953125 94.1484375 C-45.74777813 99.80107841 -36.39496802 100.85021416 -26.60546875 99.01953125 C-16.2072016 95.91284335 -9.45535239 89.79210023 -4.0703125 80.48046875 C-3.5753125 78.99546875 -3.5753125 78.99546875 -3.0703125 77.48046875 C0.71208421 78.13737494 4.14810276 79.20059975 7.7421875 80.54296875 C8.71800781 80.90519531 9.69382812 81.26742187 10.69921875 81.640625 C11.80330078 82.05634766 11.80330078 82.05634766 12.9296875 82.48046875 C10.57910751 92.66631535 2.22265204 99.80698852 -6.0703125 105.48046875 C-22.37529713 115.10841213 -43.10970903 117.65410204 -61.62109375 113.6796875 C-76.22229298 109.19294096 -89.94022367 100.05875648 -97.32421875 86.46484375 C-106.33976257 69.06132032 -110.06314804 49.34356757 -104.0078125 30.10546875 C-97.72264567 14.40140402 -86.90485174 1.44596593 -71.328125 -5.609375 C-70.58304687 -5.90972656 -69.83796875 -6.21007812 -69.0703125 -6.51953125 C-68.18085938 -6.89207031 -67.29140625 -7.26460938 -66.375 -7.6484375 C-45.9921866 -14.83500685 -18.01548348 -12.46979194 0 0 Z " fill="#323232" transform="translate(571.0703125,74.51953125)"/>
<path d="M0 0 C35.64 0 71.28 0 108 0 C108 6.27 108 12.54 108 19 C86.22 19 64.44 19 42 19 C42 34.18 42 49.36 42 65 C58.83 65 75.66 65 93 65 C93 71.6 93 78.2 93 85 C76.17 85 59.34 85 42 85 C42 100.18 42 115.36 42 131 C63.78 131 85.56 131 108 131 C108 137.27 108 143.54 108 150 C72.36 150 36.72 150 0 150 C0 100.5 0 51 0 0 Z " fill="#323232" transform="translate(19,37)"/>
<path d="M0 0 C0.74531982 0.00821777 1.49063965 0.01643555 2.25854492 0.02490234 C15.36481863 0.28996344 27.14926371 4.07274741 36.8828125 13.28125 C50.59821243 28.78026696 50.79523245 48.71488399 49.625 68.25 C46.40108505 97.34616967 32.06529518 125.85634689 12.328125 147.23828125 C10.625 148.25 10.625 148.25 8.22265625 148.078125 C5.51096109 147.21364474 3.27000802 146.11798974 0.8125 144.6875 C0.02230469 144.23246094 -0.76789063 143.77742187 -1.58203125 143.30859375 C-2.17371094 142.95925781 -2.76539063 142.60992187 -3.375 142.25 C-1.84065817 137.61549007 -0.28916286 132.9880717 1.30859375 128.375 C11.43813525 98.93709065 22.008571 59.30814541 9.37109375 29.26953125 C6.86265642 24.53289074 4.16760563 20.84204225 -0.90625 18.8125 C-7.12698122 17.3951182 -13.83043869 16.81422833 -19.84375 19.25 C-29.84513138 26.02016586 -33.9412702 38.94551846 -36.375 50.25 C-37.17201091 56.06611388 -37.09923942 61.92244017 -37.08203125 67.78125 C-37.09519 69.39507886 -37.11050676 71.00889139 -37.12785339 72.62268066 C-37.16722916 76.81143107 -37.17786267 80.99974614 -37.18188477 85.18865967 C-37.19297207 90.2460383 -37.24086463 95.30319446 -37.28237152 100.36039734 C-37.34098277 107.99045647 -37.35371772 115.6193355 -37.375 123.25 C-49.255 123.25 -61.135 123.25 -73.375 123.25 C-73.375 83.32 -73.375 43.39 -73.375 2.25 C-68.755 2.25 -64.135 2.25 -59.375 2.25 C-58.31539062 4.11527344 -57.25578125 5.98054688 -56.1640625 7.90234375 C-55.13605145 9.70345728 -54.10620433 11.5035087 -53.07617188 13.3034668 C-52.36037509 14.55659834 -51.64649728 15.81082801 -50.93457031 17.06616211 C-49.91191068 18.86863532 -48.88245256 20.66706823 -47.8515625 22.46484375 C-47.23361816 23.54886475 -46.61567383 24.63288574 -45.97900391 25.74975586 C-44.6165847 28.34226642 -44.6165847 28.34226642 -42.375 29.25 C-42.189375 28.445625 -42.00375 27.64125 -41.8125 26.8125 C-37.69338424 16.60425659 -28.42139148 7.80992693 -18.58984375 3.0390625 C-12.31465105 0.80345593 -6.6139821 -0.08922486 0 0 Z " fill="#323232" transform="translate(1288.375,63.75)"/>
<path d="M0 0 C0.95018005 0.00359528 1.90036011 0.00719055 2.8793335 0.01089478 C4.37184883 0.01067574 4.37184883 0.01067574 5.89451599 0.01045227 C9.20059348 0.01115186 12.5066154 0.01894637 15.81268311 0.02676392 C18.09811879 0.02862793 20.38355487 0.03005191 22.66899109 0.03105164 C28.69751073 0.03487809 34.72600644 0.04470947 40.7545166 0.05575562 C46.90085527 0.06596699 53.04719778 0.07054867 59.19354248 0.07559204 C71.26321447 0.08633162 83.33286868 0.10340957 95.40252686 0.12442017 C95.47806384 2.51214555 95.5329828 4.89744696 95.57635498 7.28579712 C95.59965881 7.95583015 95.62296265 8.62586319 95.64697266 9.31620026 C95.74097245 16.2305983 93.13153458 20.11941556 88.90252686 25.31192017 C87.59838636 27.03660988 86.29499533 28.76186658 84.99237061 30.48770142 C84.36443604 31.29417114 83.73650146 32.10064087 83.08953857 32.93154907 C81.08212893 35.54089111 79.25482344 38.23699471 77.46502686 40.99942017 C71.87860751 49.46225118 66.12704197 57.81350318 60.40789795 66.18692017 C58.43175737 69.08160283 56.45773809 71.97771874 54.48455811 74.87442017 C53.84204102 75.81753052 53.19952393 76.76064087 52.53753662 77.73233032 C51.33861013 79.49228795 50.13985981 81.25236561 48.94134521 83.01260376 C43.45257494 91.06676902 37.92444142 99.09254444 32.40252686 107.12442017 C53.19252686 107.12442017 73.98252686 107.12442017 95.40252686 107.12442017 C95.40252686 111.74442017 95.40252686 116.36442017 95.40252686 121.12442017 C61.74252686 121.12442017 28.08252686 121.12442017 -6.59747314 121.12442017 C-6.59747314 104.35553996 -6.59747314 104.35553996 -0.02716064 96.00576782 C2.98071003 92.04766478 5.6864693 87.86986831 8.46502686 83.74942017 C9.7775299 81.82405481 11.09135271 79.89958853 12.40643311 77.97598267 C16.24152456 72.36087916 20.07257259 66.7430285 23.90252686 61.12442017 C27.73248112 55.50581184 31.56352915 49.88796117 35.39862061 44.27285767 C36.05862061 43.30606079 36.71862061 42.33926392 37.39862061 41.34317017 C38.64158077 39.52249612 39.88502488 37.70215231 41.12908936 35.88223267 C45.60290313 29.32734147 49.99958188 22.72883763 54.40252686 16.12442017 C33.94252686 15.79442017 13.48252686 15.46442017 -7.59747314 15.12442017 C-7.59747314 0.01214955 -7.59747314 0.01214955 0 0 Z " fill="#343434" transform="translate(357.59747314453125,65.87557983398438)"/>
<path d="M0 0 C11.55 0 23.1 0 35 0 C37.46949263 6.17373158 39.84691549 12.24649213 41.93261719 18.5390625 C42.1965477 19.3273494 42.46047821 20.11563629 42.73240662 20.92781067 C43.59021798 23.49255362 44.44371157 26.05870753 45.296875 28.625 C45.89632964 30.42201479 46.49596232 32.21897021 47.09576416 34.01586914 C48.34492602 37.76042157 49.59193746 41.50568121 50.83740234 45.25146484 C52.43617054 50.05923233 54.04037566 54.86516533 55.64616013 59.67059326 C56.88190868 63.37063041 58.11481148 67.07161083 59.3468399 70.77288818 C59.9376537 72.54666527 60.5293616 74.32014481 61.12197113 76.09332275 C61.94586864 78.55995927 62.76593274 81.02783688 63.58496094 83.49609375 C63.95423958 84.59785698 63.95423958 84.59785698 64.33097839 85.72187805 C66 90.77145701 66 90.77145701 66 93 C66.66 93 67.32 93 68 93 C68.22510254 91.8447583 68.45020508 90.6895166 68.68212891 89.49926758 C70.31128966 82.19168614 72.76147954 75.12031247 75.0859375 68.01171875 C75.58951225 66.46160558 76.09273044 64.91137654 76.59561157 63.36103821 C77.91540217 59.2956723 79.24023846 55.23196807 80.56610107 51.1685791 C81.9041032 47.06461876 83.23687164 42.95895971 84.5703125 38.85351562 C87.37194302 30.23295946 90.17816143 21.61396366 93 13 C93.39149231 11.79566315 93.78298462 10.59132629 94.18634033 9.35049438 C94.544599 8.25748016 94.90285767 7.16446594 95.27197266 6.03833008 C95.5833316 5.08404617 95.89469055 4.12976227 96.21548462 3.14656067 C97 1 97 1 98 0 C99.78071246 -0.08726223 101.5648314 -0.10699041 103.34765625 -0.09765625 C104.42724609 -0.09443359 105.50683594 -0.09121094 106.61914062 -0.08789062 C108.32360352 -0.07532227 108.32360352 -0.07532227 110.0625 -0.0625 C111.77276367 -0.05573242 111.77276367 -0.05573242 113.51757812 -0.04882812 C116.34510351 -0.03699747 119.1725264 -0.0205141 122 0 C120.08302351 5.91089361 118.00766403 11.72907544 115.734375 17.51171875 C115.42426987 18.30571075 115.11416473 19.09970276 114.79466248 19.91775513 C113.78202955 22.50855863 112.76609694 25.09805332 111.75 27.6875 C111.03543162 29.5132135 110.3209969 31.33897932 109.60668945 33.16479492 C101.88249752 52.89562685 94.09673148 72.60238797 86.29638672 92.30322266 C84.97866481 95.63152824 83.66324032 98.96073277 82.34951782 102.2906189 C81.64651869 104.07051758 80.94085483 105.84936307 80.23510742 107.62817383 C79.8197876 108.68157959 79.40446777 109.73498535 78.9765625 110.8203125 C78.61643066 111.73055176 78.25629883 112.64079102 77.88525391 113.57861328 C76.86825676 116.22854372 76.86825676 116.22854372 76 120 C65.11 120 54.22 120 43 120 C41.72769531 116.47441406 40.45539062 112.94882813 39.14453125 109.31640625 C37.60345518 105.04979169 36.06149206 100.78349816 34.5191803 96.51733017 C34.04962723 95.21844507 33.58013423 93.91953825 33.11070251 92.62060928 C27.44362205 76.94011914 21.74777215 61.27099392 15.96484375 45.6328125 C15.72238733 44.97682257 15.47993092 44.32083263 15.23012733 43.64496422 C13.108882 37.90586965 10.98703877 32.16700399 8.85366821 26.43240356 C7.55055256 22.92867278 6.25160136 19.42342089 4.953125 15.91796875 C4.56555527 14.88096832 4.17798553 13.8439679 3.77867126 12.77554321 C3.42535233 11.81989471 3.07203339 10.86424622 2.70800781 9.87963867 C2.24675507 8.63980476 2.24675507 8.63980476 1.77618408 7.37492371 C1 5 1 5 0 0 Z " fill="#313131" transform="translate(734,67)"/>
<path d="M0 0 C4.62 0 9.24 0 14 0 C14.76183594 1.34191406 15.52367187 2.68382812 16.30859375 4.06640625 C17.35147172 5.89848918 18.39444574 7.73051743 19.4375 9.5625 C19.93443359 10.43841797 20.43136719 11.31433594 20.94335938 12.21679688 C21.71196289 13.56547852 21.71196289 13.56547852 22.49609375 14.94140625 C23.01006714 15.8761377 23.52404053 16.81086914 24.05358887 17.77392578 C25.90596482 21.02616136 25.90596482 21.02616136 28.2800293 23.74475098 C37.75887986 36.18276958 36.16736364 50.91914565 35.91254544 65.79098201 C35.85571772 69.67452015 35.85095304 73.55814207 35.84031677 77.44203186 C35.81250702 84.77322651 35.73887981 92.10319198 35.64817137 99.43384892 C35.54705851 107.78936491 35.49796219 116.1449442 35.45291245 124.50092113 C35.35920993 141.66811073 35.1943741 158.83361018 35 176 C23.45 176 11.9 176 0 176 C0 117.92 0 59.84 0 0 Z " fill="#303030" transform="translate(1086,11)"/>
<path d="M0 0 C9.66756648 7.62944146 13.1722245 19.71523023 14.84375 31.52734375 C16.42148137 48.54027025 14.62161331 67.01753283 4.84375 81.52734375 C0.06032397 86.87521405 -5.43278298 90.99364681 -12.671875 92.03125 C-21.40181284 92.16822601 -27.46804484 91.38580917 -34.15625 85.52734375 C-44.89924477 74.83188436 -48.11062249 57.72036573 -48.53125 43.08984375 C-48.1069384 27.58318344 -45.0729833 12.10638932 -34.15625 0.52734375 C-23.94701781 -8.42175309 -10.81270982 -7.38476739 0 0 Z " fill="#FCFCFC" transform="translate(1438.15625,83.47265625)"/>
<path d="M0 0 C9.45623969 5.82343718 14.23268991 13.92094929 16.8984375 24.68359375 C20.22062263 44.37509106 20.67956086 66.77709621 9.2109375 83.99609375 C4.12247744 89.86326274 -2.16725663 93.79542252 -9.89453125 94.51953125 C-18.81816552 94.79672897 -24.19003187 93.44157505 -30.90625 87.5546875 C-36.05302543 82.2643325 -38.60294026 76.14959581 -40.9765625 69.24609375 C-41.29753906 68.36695313 -41.61851562 67.4878125 -41.94921875 66.58203125 C-47.24889464 49.47517049 -45.16094135 28.09824461 -37.2265625 12.12109375 C-29.22613756 -1.1390564 -14.40440024 -7.51420879 0 0 Z " fill="#FDFDFD" transform="translate(1008.9765625,80.75390625)"/>
<path d="M0 0 C11.88 0 23.76 0 36 0 C36 39.93 36 79.86 36 121 C24.12 121 12.24 121 0 121 C0 81.07 0 41.14 0 0 Z " fill="#333333" transform="translate(1150,66)"/>
<path d="M0 0 C11.88 0 23.76 0 36 0 C36 39.93 36 79.86 36 121 C24.12 121 12.24 121 0 121 C0 81.07 0 41.14 0 0 Z " fill="#333333" transform="translate(871,66)"/>
<path d="M0 0 C5.54943458 3.66472095 8.48256348 7.57875731 10 14 C10.90551022 22.32525674 11.35664178 31.64816699 7 39 C1.62729312 45.21017918 -4.97414083 49.44348415 -13.24169922 50.20703125 C-25.13081683 50.85607647 -36.43977759 49.74698354 -48 47 C-48.90994155 32.01124056 -45.43215229 17.07997067 -36.41015625 4.84375 C-26.97052503 -5.63979338 -11.87130491 -7.17470515 0 0 Z " fill="#FCFCFC" transform="translate(686,83)"/>
<path d="M0 0 C6.03776675 3.76697223 9.90874705 9.13939648 11.78515625 15.9765625 C13.38015829 24.76331479 12.23863408 32.39413543 8.22265625 40.38671875 C2.72221587 47.37376464 -4.30582006 50.00788568 -12.77734375 51.38671875 C-16.03364005 51.66737668 -19.26012059 51.71959909 -22.52734375 51.69921875 C-23.39262695 51.69792969 -24.25791016 51.69664062 -25.14941406 51.6953125 C-32.35110782 51.58826391 -38.87085116 50.50403765 -45.77734375 48.38671875 C-46.30747582 32.73800534 -44.35641533 17.4827185 -33.7890625 5.046875 C-24.27457052 -3.69167783 -11.7989004 -5.46778311 0 0 Z " fill="#FBFBFB" transform="translate(546.77734375,81.61328125)"/>
<path d="M0 0 C3.90387701 2.95171189 7.35807825 6.52865649 9.5625 10.9375 C10.05137732 16.73991278 10.41795438 22.09498286 7.9375 27.4375 C3.78943573 31.80388344 -0.56651685 36.37987094 -6.76953125 37.2734375 C-12.95241592 37.37080576 -16.44539057 36.65711095 -21.4375 32.9375 C-25.99996633 28.3993021 -28.71738769 24.17741851 -28.875 17.6875 C-28.76720904 11.92068373 -27.19457083 8.266299 -23.4375 3.9375 C-16.6701758 -2.20030567 -8.70730894 -2.69135003 0 0 Z " fill="#323232" transform="translate(898.4375,20.0625)"/>
<path d="M0 0 C4.41559894 2.35955509 8.8218635 6.37112738 10.375 11.23828125 C11.55178292 17.56200359 11.21606103 22.86488204 8.03515625 28.52734375 C5.16213769 32.56367043 1.32143676 35.3947506 -3.23828125 37.31640625 C-10.03501473 38.29550019 -14.75521933 37.40182493 -20.23828125 33.31640625 C-25.10934434 28.58784766 -27.29783966 24.17761046 -27.61328125 17.44140625 C-27.47523923 11.63501399 -25.93898371 7.96888189 -21.70703125 3.8125 C-15.47342143 -1.55023786 -7.95293659 -2.42890734 0 0 Z " fill="#323232" transform="translate(1176.23828125,19.68359375)"/>
</svg>
